<svg width="50" height="50" viewBox="0 0 50 50" fill="none" xmlns="http://www.w3.org/2000/svg">
<g clip-path="url(#clip0_21_320)">
<path fill-rule="evenodd" clip-rule="evenodd" d="M23.2143 11.2743L28.4788 11.261C28.4788 9.08283 32.109 4.8995 36.6715 4.8995C41.507 4.8995 46.3071 9.15599 45.0663 14.9521C43.3895 22.7867 34.6969 22.3345 31.6056 22.3345L31.5736 27C39.8905 27 43.113 26.4347 46.9452 22.1549C55.0458 13.1065 47.1827 -2.54937 33.3356 0.353695C27.316 1.61402 23.2214 6.74841 23.2214 11.2709L23.2143 11.2743Z" fill="#E41346"/>
<path fill-rule="evenodd" clip-rule="evenodd" d="M16.7716 27.7246L23.8297 27.7443C23.9957 36.1414 24.8223 44.4102 13.2143 44.4102L13.2249 49C30.9796 49 29.5736 35.6778 28.8459 23H16.7504L16.7716 27.7246Z" fill="#001654"/>
<path fill-rule="evenodd" clip-rule="evenodd" d="M5.49179 45.9967C5.91938 36.6062 2.92254 30.6876 13.2143 27.7184L13.2069 23C10.3723 23.0364 7.34224 24.6367 5.68347 25.7014C1.20847 28.5648 -0.995852 35.0158 0.891462 40.1177C1.80563 42.5811 3.704 45.0742 5.49548 46L5.49179 45.9967Z" fill="#001654"/>
<path fill-rule="evenodd" clip-rule="evenodd" d="M23.2212 19H28.1386L28.2143 15L23.2143 15.0092L23.2212 19Z" fill="#E41346"/>
</g>
<defs>
<clipPath id="clip0_21_320">
<rect width="50" height="50" fill="white"/>
</clipPath>
</defs>
</svg>
