<svg width="105" height="29" viewBox="0 0 105 29" fill="none" xmlns="http://www.w3.org/2000/svg">
<g clip-path="url(#clip0_346_4826)">
<path d="M10.3098 1.18013C11.3094 1.74228 12.0837 2.5328 12.6363 3.55521C13.1889 4.57762 13.4634 5.74056 13.4634 7.04756V18.3011C13.4634 20.114 12.9636 21.6177 11.964 22.8088C10.9644 24.0034 9.61288 24.7131 7.91287 24.9414C7.82136 24.9414 7.77561 24.9871 7.77561 25.0785V28.4865C7.77561 28.7149 7.65945 28.8308 7.43067 28.8308H6.29381C6.06503 28.8308 5.94889 28.7149 5.94889 28.4865V25.0469C5.94889 24.9555 5.90313 24.9098 5.81162 24.9098C4.13273 24.6815 2.79524 23.9753 1.79565 22.7947C0.796059 21.6142 0.296265 20.1175 0.296265 18.3046V7.05107C0.296265 5.74408 0.570797 4.57762 1.12339 3.55872C1.67598 2.53983 2.45031 1.7458 3.4499 1.18365C4.4495 0.621498 5.5934 0.340424 6.8816 0.340424C8.16981 0.340424 9.31371 0.621498 10.3133 1.18365L10.3098 1.18013ZM11.6367 6.94567C11.6367 5.45597 11.1932 4.25087 10.3098 3.33035C9.42634 2.41335 8.28244 1.95309 6.87808 1.95309C5.47373 1.95309 4.30519 2.41335 3.42879 3.33035C2.5559 4.24736 2.11946 5.45246 2.11946 6.94567V18.3713C2.11946 19.8645 2.5559 21.0661 3.42879 21.9831C4.30167 22.9001 5.45261 23.3604 6.87808 23.3604C8.30356 23.3604 9.42282 22.9001 10.3098 21.9831C11.1932 21.0661 11.6367 19.861 11.6367 18.3713V6.94567Z" fill="#131313"/>
<path d="M22.1324 23.638C21.0871 22.742 20.4711 21.551 20.2881 20.0578C20.1508 19.1162 20.0804 17.7741 20.0804 16.0314C20.0804 14.2887 20.1508 12.922 20.2881 12.005C20.4711 10.5153 21.0871 9.32075 22.1324 8.42482C23.1778 7.5289 24.5047 7.08269 26.1132 7.08269C27.7217 7.08269 29.0134 7.53592 30.0623 8.44239C31.1076 9.34885 31.7236 10.5364 31.9066 12.005C32.0227 12.785 32.0791 14.1271 32.0791 16.0314C32.0791 17.9357 32.0227 19.2778 31.9066 20.0578C31.7236 21.551 31.1006 22.742 30.0447 23.638C28.9888 24.5339 27.6654 24.9801 26.0815 24.9801C24.4977 24.9801 23.1778 24.5339 22.1324 23.638ZM28.8586 22.3626C29.6047 21.6986 30.0376 20.8132 30.1503 19.7135C30.2207 19.0494 30.2523 17.8197 30.2523 16.0314C30.2523 14.2431 30.2171 13.0134 30.1503 12.3493C30.0341 11.2496 29.6047 10.3642 28.8586 9.7002C28.1124 9.03616 27.1867 8.70238 26.085 8.70238C24.9834 8.70238 24.0612 9.03616 23.3256 9.7002C22.59 10.3642 22.1641 11.2496 22.0515 12.3493C21.9811 13.0169 21.9494 14.2431 21.9494 16.0314C21.9494 17.8197 21.9846 19.0494 22.0515 19.7135C22.1676 20.8132 22.59 21.6986 23.3256 22.3626C24.0612 23.0266 24.9799 23.3604 26.085 23.3604C27.1902 23.3604 28.1124 23.0266 28.8586 22.3626Z" fill="#131313"/>
<path d="M49.5262 8.63211C50.4448 9.64047 50.9059 11.0072 50.9059 12.7288V24.3617C50.9059 24.5901 50.7897 24.706 50.561 24.706H49.4241C49.1953 24.706 49.0792 24.5901 49.0792 24.3617V13.0063C49.0792 11.6993 48.7342 10.6594 48.0444 9.89344C47.3545 9.12399 46.4359 8.74103 45.2849 8.74103C44.134 8.74103 43.1344 9.13805 42.4234 9.92857C41.7089 10.7191 41.3535 11.7696 41.3535 13.0766V24.3652C41.3535 24.5936 41.2373 24.7096 41.0085 24.7096H39.8717C39.6429 24.7096 39.5267 24.5936 39.5267 24.3652V7.70808C39.5267 7.47971 39.6429 7.36377 39.8717 7.36377H41.0085C41.2373 7.36377 41.3535 7.47971 41.3535 7.70808V9.18723C41.3535 9.2575 41.371 9.29615 41.4062 9.30669C41.4414 9.31723 41.4696 9.29967 41.4942 9.25399C41.9553 8.56536 42.5501 8.03834 43.2858 7.66943C44.0214 7.30404 44.8485 7.11783 45.7671 7.11783C47.3545 7.11783 48.604 7.62376 49.5262 8.63211Z" fill="#131313"/>
<path d="M66.47 22.6226C67.1704 22.1307 67.6596 21.4702 67.9342 20.6445C68.0045 20.4372 68.1418 20.3564 68.3495 20.4021L69.3843 20.5743C69.5004 20.5989 69.5743 20.648 69.6095 20.7288C69.6447 20.8097 69.6482 20.894 69.6271 20.9853C69.2611 22.201 68.5747 23.1707 67.5751 23.8944C66.5756 24.6182 65.3753 24.9801 63.971 24.9801C62.3871 24.9801 61.0813 24.5374 60.0571 23.6555C59.0328 22.7737 58.4204 21.6072 58.2128 20.1632C58.1213 19.6116 58.0614 18.9756 58.0403 18.2519C58.0157 17.5281 58.0051 16.7903 58.0051 16.0314C58.0051 14.1517 58.0509 12.8307 58.1424 12.0753C58.3254 10.6067 58.9413 9.40858 59.9867 8.47752C61.032 7.54998 62.3378 7.08269 63.9006 7.08269C65.5795 7.08269 66.9451 7.56403 68.0045 8.52671C69.0605 9.48939 69.6588 10.7507 69.7961 12.3107C69.8665 13.0661 69.8981 14.4222 69.8981 16.3722C69.8981 16.6006 69.782 16.7165 69.5532 16.7165H59.9691C59.8776 16.7165 59.8318 16.7622 59.8318 16.8535C59.8318 18.2519 59.8529 19.204 59.9022 19.71C60.0184 20.8097 60.4407 21.695 61.1763 22.3591C61.912 23.0231 62.8552 23.3569 64.0026 23.3569C64.9459 23.3569 65.766 23.1109 66.4664 22.6156L66.47 22.6226ZM61.1587 9.71776C60.4337 10.3959 60.0148 11.2707 59.8987 12.3493C59.8529 12.8553 59.8283 13.7477 59.8283 15.0336C59.8283 15.1249 59.8741 15.1706 59.9656 15.1706H67.9306C68.0221 15.1706 68.0679 15.1249 68.0679 15.0336C68.0679 14.0006 68.0327 13.1082 67.9658 12.3493C67.8497 11.2707 67.4273 10.3923 66.6917 9.71776C65.9561 9.03967 65.0374 8.70238 63.9323 8.70238C62.8271 8.70238 61.8803 9.03967 61.1587 9.71776Z" fill="#131313"/>
<path d="M80.3446 24.4285L75.3466 7.73619L75.3114 7.6343C75.3114 7.4516 75.4276 7.36025 75.6563 7.36025H76.9305C77.1135 7.36025 77.2402 7.4516 77.3106 7.6343L81.309 21.8461C81.3301 21.8918 81.3653 21.9164 81.411 21.9164C81.4568 21.9164 81.492 21.8953 81.5131 21.8461L85.5115 7.66592C85.603 7.45863 85.7297 7.35674 85.8916 7.35674L87.1657 7.39187C87.2819 7.39187 87.3734 7.42701 87.4403 7.49376C87.5071 7.56052 87.5212 7.65538 87.4755 7.76781L82.4775 24.425C82.4071 24.6077 82.2804 24.699 82.0974 24.699H80.7529C80.5452 24.699 80.4079 24.6077 80.3411 24.425L80.3446 24.4285Z" fill="#131313"/>
<path d="M95.0499 23.638C94.0045 22.742 93.3885 21.551 93.2055 20.0578C93.0683 19.1162 92.9979 17.7741 92.9979 16.0314C92.9979 14.2887 93.0683 12.922 93.2055 12.005C93.3885 10.5153 94.0045 9.32075 95.0499 8.42482C96.0952 7.5289 97.4221 7.08269 99.0306 7.08269C100.639 7.08269 101.931 7.53592 102.976 8.44239C104.022 9.34885 104.637 10.5364 104.821 12.005C104.937 12.785 104.993 14.1271 104.993 16.0314C104.993 17.9357 104.937 19.2778 104.821 20.0578C104.637 21.551 104.014 22.742 102.959 23.638C101.903 24.5339 100.579 24.9801 98.9954 24.9801C97.4116 24.9801 96.0952 24.5339 95.0499 23.638ZM101.772 22.3626C102.519 21.6986 102.948 20.8132 103.064 19.7135C103.135 19.0494 103.166 17.8197 103.166 16.0314C103.166 14.2431 103.131 13.0134 103.064 12.3493C102.948 11.2496 102.519 10.3642 101.772 9.7002C101.026 9.03616 100.101 8.70238 98.9954 8.70238C97.8902 8.70238 96.9716 9.03616 96.236 9.7002C95.5004 10.3642 95.0745 11.2496 94.9619 12.3493C94.8915 13.0169 94.8598 14.2431 94.8598 16.0314C94.8598 17.8197 94.895 19.0494 94.9619 19.7135C95.078 20.8132 95.5004 21.6986 96.236 22.3626C96.9716 23.0266 97.8902 23.3604 98.9954 23.3604C100.101 23.3604 101.023 23.0266 101.772 22.3626Z" fill="#131313"/>
</g>
<defs>
<clipPath id="clip0_346_4826">
<rect width="105" height="29" fill="white"/>
</clipPath>
</defs>
</svg>
