<svg width="199" height="49" viewBox="0 0 199 49" fill="none" xmlns="http://www.w3.org/2000/svg">
<g clip-path="url(#clip0_7477_17771)">
<path d="M13 44H185" stroke="#001654" stroke-width="6" stroke-linecap="round"/>
<mask id="path-2-outside-1_7477_17771" maskUnits="userSpaceOnUse" x="59" y="1" width="80" height="46" fill="black">
<rect fill="white" x="59" y="1" width="80" height="46"/>
<path d="M133 41C133 31.9826 129.418 23.3346 123.042 16.9584C116.665 10.5821 108.017 7 99 7C89.9826 7 81.3346 10.5821 74.9584 16.9584C68.5821 23.3346 65 31.9826 65 41L99 41H133Z"/>
</mask>
<path d="M133 41C133 31.9826 129.418 23.3346 123.042 16.9584C116.665 10.5821 108.017 7 99 7C89.9826 7 81.3346 10.5821 74.9584 16.9584C68.5821 23.3346 65 31.9826 65 41L99 41H133Z" fill="#21005D" fill-opacity="0.16"/>
<path d="M133 41C133 31.9826 129.418 23.3346 123.042 16.9584C116.665 10.5821 108.017 7 99 7C89.9826 7 81.3346 10.5821 74.9584 16.9584C68.5821 23.3346 65 31.9826 65 41L99 41H133Z" stroke="#001654" stroke-width="12" mask="url(#path-2-outside-1_7477_17771)"/>
<path d="M149.25 15.0127V25H147.603V16.9678L145.162 17.7949V16.4346L149.052 15.0127H149.25ZM159.569 15.0469V15.9492L155.591 25H153.854L157.826 16.3594H152.672V15.0469H159.569ZM167.674 22.2861C167.674 22.9059 167.53 23.4277 167.243 23.8516C166.956 24.2754 166.564 24.5967 166.067 24.8154C165.575 25.0296 165.019 25.1367 164.399 25.1367C163.78 25.1367 163.221 25.0296 162.725 24.8154C162.228 24.5967 161.836 24.2754 161.549 23.8516C161.262 23.4277 161.118 22.9059 161.118 22.2861C161.118 21.876 161.198 21.5046 161.357 21.1719C161.517 20.8346 161.743 20.5452 162.034 20.3037C162.33 20.0576 162.677 19.8685 163.073 19.7363C163.474 19.6042 163.912 19.5381 164.386 19.5381C165.015 19.5381 165.577 19.6543 166.074 19.8867C166.571 20.1191 166.961 20.4404 167.243 20.8506C167.53 21.2607 167.674 21.7393 167.674 22.2861ZM166.02 22.2041C166.02 21.8714 165.951 21.5798 165.814 21.3291C165.678 21.0785 165.486 20.8848 165.24 20.748C164.994 20.6113 164.709 20.543 164.386 20.543C164.058 20.543 163.773 20.6113 163.531 20.748C163.29 20.8848 163.101 21.0785 162.964 21.3291C162.832 21.5798 162.766 21.8714 162.766 22.2041C162.766 22.5413 162.832 22.833 162.964 23.0791C163.096 23.3206 163.285 23.5052 163.531 23.6328C163.777 23.7604 164.067 23.8242 164.399 23.8242C164.732 23.8242 165.019 23.7604 165.261 23.6328C165.502 23.5052 165.689 23.3206 165.821 23.0791C165.953 22.833 166.02 22.5413 166.02 22.2041ZM167.448 17.665C167.448 18.1618 167.316 18.6038 167.052 18.9912C166.792 19.3786 166.432 19.6839 165.972 19.9072C165.511 20.126 164.987 20.2354 164.399 20.2354C163.807 20.2354 163.278 20.126 162.813 19.9072C162.353 19.6839 161.991 19.3786 161.727 18.9912C161.467 18.6038 161.337 18.1618 161.337 17.665C161.337 17.0726 161.467 16.5736 161.727 16.168C161.991 15.7578 162.353 15.4456 162.813 15.2314C163.274 15.0173 163.8 14.9102 164.393 14.9102C164.985 14.9102 165.511 15.0173 165.972 15.2314C166.432 15.4456 166.792 15.7578 167.052 16.168C167.316 16.5736 167.448 17.0726 167.448 17.665ZM165.801 17.7197C165.801 17.4235 165.742 17.1637 165.623 16.9404C165.509 16.7126 165.347 16.5348 165.138 16.4072C164.928 16.2796 164.68 16.2158 164.393 16.2158C164.105 16.2158 163.857 16.2773 163.647 16.4004C163.438 16.5234 163.276 16.6966 163.162 16.9199C163.048 17.1432 162.991 17.4098 162.991 17.7197C162.991 18.0251 163.048 18.2917 163.162 18.5195C163.276 18.7428 163.438 18.9183 163.647 19.0459C163.862 19.1735 164.112 19.2373 164.399 19.2373C164.687 19.2373 164.935 19.1735 165.145 19.0459C165.354 18.9183 165.516 18.7428 165.63 18.5195C165.744 18.2917 165.801 18.0251 165.801 17.7197ZM169.503 16.7354C169.503 16.4027 169.585 16.0973 169.749 15.8193C169.913 15.5413 170.132 15.3203 170.405 15.1562C170.683 14.9876 170.984 14.9033 171.308 14.9033C171.636 14.9033 171.934 14.9876 172.203 15.1562C172.472 15.3203 172.686 15.5413 172.846 15.8193C173.01 16.0973 173.092 16.4027 173.092 16.7354C173.092 17.068 173.01 17.3734 172.846 17.6514C172.686 17.9248 172.472 18.1413 172.203 18.3008C171.934 18.4603 171.636 18.54 171.308 18.54C170.984 18.54 170.683 18.4603 170.405 18.3008C170.132 18.1413 169.913 17.9248 169.749 17.6514C169.585 17.3734 169.503 17.068 169.503 16.7354ZM170.426 16.7354C170.426 16.9814 170.512 17.1888 170.686 17.3574C170.859 17.5215 171.066 17.6035 171.308 17.6035C171.549 17.6035 171.752 17.5215 171.916 17.3574C172.08 17.1934 172.162 16.986 172.162 16.7354C172.162 16.4801 172.08 16.2682 171.916 16.0996C171.752 15.931 171.549 15.8467 171.308 15.8467C171.066 15.8467 170.859 15.931 170.686 16.0996C170.512 16.2682 170.426 16.4801 170.426 16.7354Z" fill="#001654"/>
</g>
<defs>
<clipPath id="clip0_7477_17771">
<rect width="199" height="49" fill="white"/>
</clipPath>
</defs>
</svg>
